<?xml version="1.0" encoding="UTF-8" standalone="no"?>
<svg
   xmlns:dc="http://purl.org/dc/elements/1.1/"
   xmlns:cc="http://creativecommons.org/ns#"
   xmlns:rdf="http://www.w3.org/1999/02/22-rdf-syntax-ns#"
   xmlns:svg="http://www.w3.org/2000/svg"
   xmlns="http://www.w3.org/2000/svg"
   xmlns:sodipodi="http://sodipodi.sourceforge.net/DTD/sodipodi-0.dtd"
   xmlns:inkscape="http://www.inkscape.org/namespaces/inkscape"
   height="814.909"
   width="1000"
   version="1.1"
   id="svg2"
   inkscape:version="0.91 r13725"
   sodipodi:docname="Windows_1992.svg">
  <metadata
     id="metadata200">
    <rdf:RDF>
      <cc:Work
         rdf:about="">
        <dc:format>image/svg+xml</dc:format>
        <dc:type
           rdf:resource="http://purl.org/dc/dcmitype/StillImage" />
        <dc:title></dc:title>
      </cc:Work>
    </rdf:RDF>
  </metadata>
  <defs
     id="defs198" />
  <sodipodi:namedview
     pagecolor="#ffffff"
     bordercolor="#666666"
     borderopacity="1"
     objecttolerance="10"
     gridtolerance="10"
     guidetolerance="10"
     inkscape:pageopacity="0"
     inkscape:pageshadow="2"
     inkscape:window-width="1366"
     inkscape:window-height="705"
     id="namedview196"
     showgrid="false"
     inkscape:zoom="0.24255407"
     inkscape:cx="142.12922"
     inkscape:cy="98.161297"
     inkscape:window-x="-8"
     inkscape:window-y="-8"
     inkscape:window-maximized="1"
     inkscape:current-layer="svg2" />
  <g
     style="fill:#000000"
     id="g92"
     transform="matrix(4.8056804,0,0,4.8056804,-5.5155755,-2.08036)">
    <path
       d="m 1.14772,141.389 6.70671,-3.42824 0,6.55832 -6.70671,2.98168 0,-6.11176"
       id="path94"
       style="fill:#000000"
       inkscape:connector-curvature="0" />
    <path
       d="m 1.14772,15.7315 6.70671,-3.42824 0,6.55971 -6.70671,2.9803 0,-6.11176"
       id="path96"
       style="fill:#000000"
       inkscape:connector-curvature="0" />
    <path
       d="m 1.14772,78.3372 6.70671,-3.27985 0,6.55693 -6.70671,2.98307 0,-6.26015"
       id="path98"
       style="fill:#000000"
       inkscape:connector-curvature="0" />
    <path
       d="m 109.96,10.9622 0,146.377 c 31.3021,-18.1855 64.5445,-16.3965 99.2748,0.44656 l 0,-145.183 c -34.433,-16.3981 -67.377,-15.5036 -99.275,-1.6408"
       id="path100"
       style="fill:#000000"
       inkscape:connector-curvature="0" />
    <path
       d="m 15.9036,146.308 8.64411,-5.21725 0,9.24044 -8.64411,4.77209 0,-8.79528"
       id="path102"
       style="fill:#000000"
       inkscape:connector-curvature="0" />
    <path
       d="m 15.9036,20.6506 8.64411,-5.21587 0,9.09206 -8.64411,4.9177 0,-8.79389"
       id="path104"
       style="fill:#000000"
       inkscape:connector-curvature="0" />
    <path
       d="m 15.9036,83.4047 8.64411,-5.21726 0,9.24184 -8.64411,4.91908 0,-8.94366"
       id="path106"
       style="fill:#000000"
       inkscape:connector-curvature="0" />
    <path
       d="m 32.0019,100.994 11.9254,-5.36704 0,-10.8825 -11.9254,5.66658 0,10.5829"
       id="path112"
       style="fill:#000000"
       inkscape:connector-curvature="0" />
    <path
       d="m 32.0019,163.896 11.9254,-5.36565 0,-10.8811 -11.9254,5.66382 0,10.5829"
       id="path114"
       style="fill:#000000"
       inkscape:connector-curvature="0" />
    <path
       d="m 32.0019,38.2398 11.9254,-5.36565 0,-10.8811 -11.9254,5.66381 0,10.5829"
       id="path116"
       style="fill:#000000"
       inkscape:connector-curvature="0" />
    <path
       d="m 49.1459,152.569 14.6061,-6.85649 0,14.6075 -14.6061,7.00627 0,-14.7573"
       id="path118"
       style="fill:#000000"
       inkscape:connector-curvature="0" />
    <path
       d="m 49.1459,26.9121 14.6061,-6.85788 0,14.6075 -14.6061,7.00765 0,-14.7573"
       id="path120"
       style="fill:#000000"
       inkscape:connector-curvature="0" />
    <path
       d="m 49.1459,89.8146 14.6061,-6.85648 0,14.6075 -14.6061,7.00627 0,-14.7573"
       id="path122"
       style="fill:#000000"
       inkscape:connector-curvature="0" />
    <path
       d="m 67.6296,153.313 17.1398,-8.64411 0,16.6947 -17.1398,8.64134 0,-16.6919"
       id="path124"
       style="fill:#000000"
       inkscape:connector-curvature="0" />
    <path
       d="m 67.6296,27.6569 17.1398,-8.64689 0,16.696 -17.1398,8.6455 0,-16.6947"
       id="path126"
       style="fill:#000000"
       inkscape:connector-curvature="0" />
    <path
       d="m 67.6296,90.4109 17.1398,-8.6455 0,16.6947 -17.1398,8.79527 0,-16.8444"
       id="path128"
       style="fill:#000000"
       inkscape:connector-curvature="0" />
    <path
       d="m 88.4958,105.317 0,18.3353 18.4837,-9.54139 0,-17.886 -18.4837,9.09206"
       id="path130"
       style="fill:#000000"
       inkscape:connector-curvature="0" />
    <path
       d="m 88.4958,126.781 0,18.4823 18.4837,-9.53723 0,-17.8873 -18.4837,8.94229"
       id="path132"
       style="fill:#000000"
       inkscape:connector-curvature="0" />
    <path
       d="m 88.4958,147.948 0,18.4837 18.4837,-9.6884 0,-17.7403 -18.4837,8.94505"
       id="path134"
       style="fill:#000000"
       inkscape:connector-curvature="0" />
    <path
       d="m 88.4958,21.2469 0,18.4837 18.4837,-9.6884 0,-17.7389 -18.4837,8.94367"
       id="path136"
       style="fill:#000000"
       inkscape:connector-curvature="0" />
    <path
       d="m 88.4958,42.4127 0,18.4837 18.4837,-9.6884 0,-17.8873 -18.4837,9.09206"
       id="path138"
       style="fill:#000000"
       inkscape:connector-curvature="0" />
    <path
       d="m 88.4958,63.2818 0,18.4837 18.4837,-9.54 0,-17.8873 -18.4837,8.94367"
       id="path140"
       style="fill:#000000"
       inkscape:connector-curvature="0" />
    <path
       d="m 88.4958,84.4489 0,18.4837 18.4837,-9.68839 0,-17.7403 -18.4837,8.94506"
       id="path142"
       style="fill:#000000"
       inkscape:connector-curvature="0" />
  </g>
  <g
     style="fill:#0000ff;fill-opacity:1"
     id="g144"
     transform="matrix(4.8056804,0,0,4.8056804,-5.5155755,-2.08036)">
    <path
       d="m 1.14772,120.224 6.70671,-3.27985 0,6.40993 -6.70671,2.98168 0,-6.11176"
       id="path146"
       style="fill:#0000ff;fill-opacity:1"
       inkscape:connector-curvature="0" />
    <path
       d="m 1.14772,99.8025 6.70671,-3.27985 0,6.40992 -6.70671,2.9803 0,-6.11037"
       id="path148"
       style="fill:#0000ff;fill-opacity:1"
       inkscape:connector-curvature="0" />
    <path
       d="m 109.811,91.9018 c 12.2221,-5.96337 23.253,-8.6455 33.2409,-9.39022 l 0,44.1192 c -11.7756,2.08856 -23.1046,5.22003 -33.2409,9.98933 l 0,-44.7183"
       id="path150"
       style="fill:#0000ff;fill-opacity:1"
       inkscape:connector-curvature="0" />
    <path
       d="m 15.9036,104.867 8.64411,-5.21448 0,9.09206 -8.64411,4.91909 0,-8.79667"
       id="path152"
       style="fill:#0000ff;fill-opacity:1"
       inkscape:connector-curvature="0" />
    <path
       d="m 15.9036,125.141 8.64411,-5.21587 0,9.24045 -8.64411,4.91909 0,-8.94367"
       id="path154"
       style="fill:#0000ff;fill-opacity:1"
       inkscape:connector-curvature="0" />
    <path
       d="m 32.0019,122.459 11.9254,-5.51542 0,-10.8811 -11.9254,5.66381 0,10.7327"
       id="path156"
       style="fill:#0000ff;fill-opacity:1"
       inkscape:connector-curvature="0" />
    <path
       d="m 32.0019,142.88 11.9254,-5.51543 0,-10.8811 -11.9254,5.6652 0,10.7313"
       id="path158"
       style="fill:#0000ff;fill-opacity:1"
       inkscape:connector-curvature="0" />
    <path
       d="m 49.1459,111.28 14.6061,-7.00765 0,14.7586 -14.6061,7.00488 0,-14.7559"
       id="path160"
       style="fill:#0000ff;fill-opacity:1"
       inkscape:connector-curvature="0" />
    <path
       d="m 49.1459,131.553 14.6061,-7.00766 0,14.7586 -14.6061,6.8551 0,-14.6061"
       id="path162"
       style="fill:#0000ff;fill-opacity:1"
       inkscape:connector-curvature="0" />
    <path
       d="m 67.6296,111.726 17.1398,-8.64549 0,16.6947 -17.1398,8.79527 0,-16.8444"
       id="path164"
       style="fill:#0000ff;fill-opacity:1"
       inkscape:connector-curvature="0" />
    <path
       d="m 67.6296,132.149 17.1398,-8.64827 0,16.696 -17.1398,8.79389 0,-16.8417"
       id="path166"
       style="fill:#0000ff;fill-opacity:1"
       inkscape:connector-curvature="0" />
  </g>
  <path
     style="fill:#008000;fill-opacity:1"
     d="m 744.26187,92.86787 0,227.07176 63.04765,0 c 27.93162,0 73.77776,14.32901 94.55176,22.20667 l 0,-224.21238 C 849.56586,95.7336 796.57363,87.8494 744.2638,92.86797"
     id="path168"
     inkscape:connector-curvature="0" />
  <g
     style="fill:#ff0000;fill-opacity:1"
     id="g170"
     transform="matrix(4.8056804,0,0,4.8056804,-5.5155755,-2.08036)">
    <path
       d="m 1.14772,36.8987 6.70671,-3.27985 0,6.55832 -6.70671,2.98168 0,-6.26015"
       id="path172"
       style="fill:#ff0000;fill-opacity:1"
       inkscape:connector-curvature="0" />
    <path
       d="m 1.14772,57.17 6.70671,-3.12869 0,6.55693 -6.70671,2.83191 0,-6.26015"
       id="path174"
       style="fill:#ff0000;fill-opacity:1"
       inkscape:connector-curvature="0" />
    <path
       d="m 109.811,31.3833 c 13.1166,-5.81359 23.8493,-8.94367 33.2409,-9.54 l 0,46.2092 c -11.1792,0.893119 -22.2101,4.32275 -33.2409,9.39023 l 0,-46.0594"
       id="path176"
       style="fill:#ff0000;fill-opacity:1"
       inkscape:connector-curvature="0" />
    <path
       d="m 15.9036,41.9662 8.64411,-5.21587 0,9.24045 -8.64411,4.7707 0,-8.79528"
       id="path178"
       style="fill:#ff0000;fill-opacity:1"
       inkscape:connector-curvature="0" />
    <path
       d="m 15.9036,62.2389 8.64411,-5.21726 0,9.24184 -8.64411,4.9177 0,-8.94228"
       id="path180"
       style="fill:#ff0000;fill-opacity:1"
       inkscape:connector-curvature="0" />
    <path
       d="m 32.0019,59.5553 11.9254,-5.36565 0,-10.8811 -11.9254,5.66381 0,10.5829"
       id="path182"
       style="fill:#ff0000;fill-opacity:1"
       inkscape:connector-curvature="0" />
    <path
       d="m 32.0019,79.828 11.9254,-5.36565 0,-11.0322 -11.9254,5.81359 0,10.5843"
       id="path184"
       style="fill:#ff0000;fill-opacity:1"
       inkscape:connector-curvature="0" />
    <path
       d="m 49.1459,48.3747 14.6061,-7.00349 0,14.7559 -14.6061,7.00627 0,-14.7586"
       id="path186"
       style="fill:#ff0000;fill-opacity:1"
       inkscape:connector-curvature="0" />
    <path
       d="m 49.1459,68.6474 14.6061,-6.85649 0,14.6089 -14.6061,7.00488 0,-14.7573"
       id="path188"
       style="fill:#ff0000;fill-opacity:1"
       inkscape:connector-curvature="0" />
    <path
       d="m 67.6296,48.9724 17.1398,-8.6455 0,16.6947 -17.1398,8.6455 0,-16.6947"
       id="path190"
       style="fill:#ff0000;fill-opacity:1"
       inkscape:connector-curvature="0" />
    <path
       d="m 67.6296,69.2437 17.1398,-8.6455 0,16.696 -17.1398,8.64411 0,-16.6947"
       id="path192"
       style="fill:#ff0000;fill-opacity:1"
       inkscape:connector-curvature="0" />
  </g>
  <path
     style="fill:#ffff00;fill-opacity:1"
     d="m 744.26187,385.12677 0,218.48112 c 60.89518,-2.86582 107.45454,6.45139 157.59941,22.92642 l 0,-220.6336 C 849.56586,385.1248 796.57363,378.6799 744.2638,385.1248"
     id="path194"
     inkscape:connector-curvature="0" />
</svg>
